<svg xmlns="http://www.w3.org/2000/svg" aria-hidden="true" style="position:absolute;width:0;height:0;overflow:hidden">
  <defs>
    <symbol id="icon-check" viewBox="0 0 31 32">
      <path d="M26.045 10.44 12.477 24.008c-.12.121-.284.189-.454.189s-.334-.068-.454-.189L4.67 17.109c-.121-.12-.189-.284-.189-.454s.068-.334.189-.454l.896-.896c.12-.121.284-.189.454-.189s.334.068.454.189l5.542 5.542L24.24 8.623a.654.654 0 0 1 .909 0l.896.909c.121.12.189.284.189.454s-.068.334-.189.454z"/>
    </symbol>
    <symbol id="icon-close" viewBox="0 0 32 32">
      <path d="m21.589 8.459-5.657 5.656-5.656-5.656-1.885 1.885L14.047 16l-5.656 5.656 1.885 1.885 5.656-5.656 5.657 5.656 1.885-1.885L17.818 16l5.656-5.656-1.885-1.885z"/>
    </symbol>
    <symbol id="icon-facebook" viewBox="0 0 32 32">
      <path d="M29.333 16.405C29.333 8.996 23.364 2.99 16 2.99S2.667 8.996 2.667 16.405c0 6.696 4.876 12.245 11.25 13.252v-9.374h-3.385v-3.878h3.385V13.45c0-3.362 1.991-5.219 5.036-5.219 1.459 0 2.985.262 2.985.262v3.301h-1.681c-1.656 0-2.173 1.034-2.173 2.095v2.516h3.698l-.591 3.878h-3.107v9.374c6.374-1.006 11.25-6.556 11.25-13.252z"/>
    </symbol>
    <symbol id="icon-Instagram" viewBox="0 0 32 32">
      <path d="M15.998 6.161c3.206 0 3.585.014 4.846.071 1.172.052 1.804.248 2.226.412.558.216.961.478 1.378.895.422.422.679.82.9 1.378.164.422.361 1.059.412 2.226.056 1.266.071 1.645.071 4.847s-.014 3.585-.071 4.847c-.052 1.172-.248 1.804-.412 2.227-.216.558-.478.961-.895 1.377-.422.422-.82.679-1.378.9-.422.164-1.06.361-2.226.412-1.266.056-1.645.071-4.847.071s-3.585-.014-4.847-.071c-1.172-.052-1.804-.248-2.226-.412-.558-.216-.961-.478-1.378-.895-.422-.422-.679-.82-.9-1.378-.164-.422-.361-1.06-.412-2.226-.056-1.266-.071-1.645-.071-4.847s.014-3.585.071-4.847c.052-1.172.248-1.804.412-2.226.216-.558.478-.961.895-1.378.422-.422.82-.679 1.378-.9.422-.164 1.059-.361 2.226-.412 1.261-.056 1.641-.071 4.847-.071h.001zm0-2.16c-3.258 0-3.665.014-4.945.071-1.275.056-2.151.262-2.91.558-.792.309-1.462.717-2.127 1.387-.67.666-1.078 1.336-1.387 2.123-.295.764-.502 1.636-.558 2.91C4.015 12.335 4 12.742 4 15.999s.014 3.665.071 4.945c.056 1.275.262 2.151.558 2.91.31.792.717 1.462 1.387 2.127.665.665 1.336 1.078 2.123 1.383.764.295 1.636.502 2.91.558 1.279.056 1.687.071 4.945.071s3.666-.014 4.945-.071c1.275-.056 2.151-.262 2.91-.558.787-.305 1.458-.717 2.123-1.383s1.078-1.336 1.383-2.123c.295-.764.502-1.635.558-2.91.056-1.279.071-1.687.071-4.945s-.014-3.665-.071-4.945c-.056-1.275-.262-2.151-.558-2.91-.295-.797-.703-1.467-1.373-2.133-.665-.665-1.336-1.078-2.123-1.383-.764-.295-1.635-.502-2.91-.558-1.284-.061-1.692-.075-4.949-.075L15.999 4z"/>
      <path d="M15.997 9.836c-3.402 0-6.163 2.76-6.163 6.163s2.76 6.163 6.163 6.163c3.403 0 6.163-2.76 6.163-6.163s-2.76-6.163-6.163-6.163zm0 10.161c-2.208 0-3.998-1.79-3.998-3.998s1.79-3.998 3.998-3.998 3.998 1.79 3.998 3.998-1.79 3.998-3.998 3.998zM23.842 9.592c0 .795-.644 1.439-1.439 1.439s-1.439-.644-1.439-1.439.644-1.439 1.439-1.439 1.439.644 1.439 1.439z"/>
    </symbol>
    <symbol id="icon-linkedIn" viewBox="0 0 32 32">
      <path d="M25.75 4H6.25C5.013 4 4 5.013 4 6.25v19.5C4 26.987 5.013 28 6.25 28h19.5c1.237 0 2.25-1.013 2.25-2.25V6.25C28 5.013 26.987 4 25.75 4zM13 23.5h-3V13h3v10.5zm-1.5-12c-.829 0-1.5-.671-1.5-1.5s.671-1.5 1.5-1.5S13 9.171 13 10s-.671 1.5-1.5 1.5zm12 12h-3v-6c0-.829-.671-1.5-1.5-1.5s-1.5.671-1.5 1.5v6h-3V13h3v1.861c.619-.848 1.565-1.861 2.625-1.861 1.866 0 3.375 1.679 3.375 3.75v6.75z"/>
    </symbol>
    <symbol id="icon-logo" viewBox="0 0 108 32">
      <path d="M18.908 1.101c.478.237 1.015.919 1.375 1.321 3.094 3.456 4.716 7.858 4.429 12.491-.278 4.484-2.492 8.465-5.816 11.408-.629-.43-1.205-1.043-1.709-1.612-2.823-3.193-4.371-7.68-4.101-11.936.278-4.388 2.521-8.779 5.821-11.672z"/>
      <path d="M32.075 7.376c.009.016.02.03.028.047.176.359.227.927.272 1.325.233 2.069.04 4.144-.688 6.104-1.818 4.895-6.021 8.499-10.669 10.635-.055-.001-.018.004-.102-.045.284-.465.68-.88 1.008-1.316.501-.682.955-1.396 1.359-2.139 1.424-2.62 2.104-5.5 2.102-8.471 0-.844-.02-1.687-.264-2.501.436-.484.97-.891 1.488-1.284 1.671-1.264 3.354-2.144 5.466-2.355zM5.684 7.397c.251.01.504.042.752.08 1.909.29 3.579 1.307 5.071 2.484.416.328.872.671 1.185 1.102-.793 4.074.259 8.345 2.365 11.868.336.56.7 1.103 1.089 1.628.186.25.407.477.574.74l-.059.077c-3.473-1.485-6.727-4.114-8.82-7.255-2.196-3.296-2.922-6.846-2.157-10.723z"/>
      <path d="M35.472 16.487c.554-.066 1.795-.136 2.259.16.023.07.03.077.033.162.009.325-.203.811-.313 1.114a12.9637 12.9637 0 0 1-3.662 5.424c-3.259 2.881-7.483 3.915-11.749 3.641-.806-.084-1.636-.14-2.411-.387 3.574-1.099 6.974-3.345 9.437-6.15.606-.69 1.049-1.49 1.639-2.184 1.118-1.316 3.146-1.664 4.767-1.779zM1.327 16.596c1.666-.196 3.926.078 5.298 1.115.816.617 1.307 1.762 1.981 2.541a21.075 21.075 0 0 0 7.717 5.626c.632.271 1.283.553 1.952.718l-1.336.223c-3.891.56-7.924-.135-11.254-2.3C3.418 23.044 1.821 21.022.882 18.5c-.138-.37-.344-.771-.415-1.157-.041-.225-.005-.373.127-.564.209-.154.481-.152.733-.183zM69.289 13.233c1.297-.011 2.712-.127 3.993.06.824.12 1.661.416 2.162 1.122.368.52.489 1.25.375 1.871-.14.761-.621 1.2-1.231 1.61.146.062.29.13.43.205.539.292.921.797 1.079 1.386.216.806.043 1.637-.359 2.352-.09.137-.196.257-.315.37-1.231 1.168-3.93.942-5.521.927-.306-.003-.708.024-.936-.209-.055-.116-.079-.192-.086-.324-.105-1.708-.009-3.481-.01-5.195-.001-1.214-.122-2.795.036-3.969.122-.153.2-.152.384-.209zm4.345 6.009c-.687-.448-1.844-.319-2.641-.317l.004 2.214c.883.006 1.915.141 2.699-.333.184-.272.37-.675.316-1.014-.039-.246-.173-.416-.377-.55zm-.328-3.937c-.655-.394-1.574-.295-2.311-.291v2.125c.791.006 1.733.124 2.424-.323.186-.266.365-.649.295-.985-.051-.246-.198-.4-.408-.526zM57.197 15.534c.198-.016.397-.006.591.031.593.119.883.556 1.2 1.021.018-.163.031-.339.069-.498.039-.166.13-.268.279-.348.24-.127.754-.136 1.005-.043.183.068.387.227.45.419.187.567.114 6.116.006 6.875-.071.5-.226.993-.479 1.431-.407.707-1.099 1.168-1.876 1.379-1.096.296-2.343.202-3.321-.388-.436-.263-.641-.6-.756-1.087.037-.176.08-.347.231-.461.49-.37 1.549.251 2.092.352.468.087.973.039 1.363-.255.642-.484.748-1.379.857-2.116-.43.459-.838.829-1.471.984-.686.169-1.438.053-2.029-.339-.777-.515-1.211-1.399-1.37-2.296-.194-1.092-.025-2.399.638-3.314.632-.871 1.5-1.192 2.521-1.349zm.116 1.673c-.511.193-.794.429-1.012.939-.27.626-.278 1.533-.014 2.161.139.331.418.68.77.799.232.078.513.044.751.028.421-.15.66-.328.86-.736.307-.628.317-1.513.083-2.169-.136-.381-.405-.755-.786-.92-.195-.084-.44-.112-.651-.101zM99.652 15.593c.502-.067.996-.044 1.47.152.655.271.995.765 1.254 1.395.133-.333.279-.668.514-.944.372-.437.859-.611 1.422-.633.649-.025 1.314.124 1.791.59.313.307.505.718.61 1.139.279 1.121.123 3.53.127 4.797.001.194.025.807-.127.922-.258.194-1.172.151-1.494.106-.188-.026-.304-.127-.381-.297-.119-.262-.055-.73-.052-1.02.012-.94.244-3.537-.312-4.222-.128-.157-.309-.256-.513-.27-.299-.021-.68.082-.898.296-.771.755-.515 3.44-.509 4.496.002.213.009.446-.017.658-.012.094-.044.202-.13.251-.329.188-1.128.16-1.49.076-.189-.044-.269-.108-.337-.291-.112-.304-.049-.753-.044-1.074.017-.942.24-3.283-.239-3.989-.144-.212-.358-.341-.61-.382-.286-.047-.584-.009-.818.175-.937.74-.681 3.332-.676 4.403.001.257.054.626-.006.867-.024.1-.054.162-.14.218-.301.198-1.118.155-1.478.084-.152-.03-.248-.123-.314-.26-.092-.195-.12-5.828-.085-6.386.009-.155.042-.321.113-.461.092-.179.245-.296.433-.357.446-.144 1.002.015 1.396.234.095.352.027.813.012 1.18.046-.094.093-.187.141-.279.348-.672.675-.946 1.385-1.172zM91.547 15.623c2.074-.043 3.798 1.591 3.866 3.665s-1.543 3.817-3.616 3.911c-1.364.062-2.656-.614-3.383-1.77s-.773-2.615-.125-3.816a3.7892 3.7892 0 0 1 3.257-1.99zm-.256 1.648c-.557.248-.861.531-1.076 1.114-.258.696-.215 1.669.115 2.334.178.358.454.649.839.777.264.088.511.102.781.039.534-.224.853-.509 1.072-1.056.275-.687.272-1.605-.044-2.277-.198-.421-.549-.766-1-.9-.221-.065-.461-.051-.688-.03zM49.543 15.633c2.088-.094 3.857 1.52 3.955 3.608s-1.515 3.861-3.602 3.961c-2.092.1-3.869-1.515-3.966-3.607s1.521-3.867 3.614-3.961zm.588 1.688c-.242-.083-.491-.081-.741-.049-.559.276-.879.564-1.092 1.175-.241.692-.206 1.68.142 2.33.19.355.478.614.866.733.238.073.507.08.749.022.533-.221.846-.508 1.06-1.055.272-.693.251-1.609-.064-2.286-.185-.398-.5-.726-.92-.87zM83.056 15.675c1.345-.217 2.703.305 3.556 1.366s1.069 2.5.568 3.766c-.503 1.266-1.646 2.166-2.995 2.354-2.054.287-3.957-1.134-4.266-3.185s1.09-3.97 3.138-4.301zm.308 1.592c-.561.239-.884.51-1.111 1.091-.266.681-.24 1.624.075 2.286.19.4.514.729.941.865.214.069.457.067.677.04.56-.236.885-.501 1.117-1.082.269-.676.265-1.608-.049-2.269-.186-.392-.503-.723-.918-.87-.234-.083-.489-.082-.734-.061zM64.132 15.597c.474-.056.931-.047 1.397.061.709.164 1.303.577 1.665 1.213.193.34.305.715.359 1.101.083.598.13 4.376-.006 4.896-.114.146-.229.198-.406.236-.303.064-.967.103-1.212-.124-.214-.198-.17-.611-.173-.877-.355.525-.713.948-1.359 1.11-.722.18-1.391-.031-2.013-.39-.265-.244-.466-.494-.58-.84-.192-.584-.13-1.372.169-1.91.725-1.305 2.434-1.227 3.684-1.595l.078-.024c-.05-.156-.099-.316-.164-.466-.707-1.63-2.47.151-3.322-.297-.172-.09-.296-.274-.34-.46-.058-.248.009-.408.144-.614.458-.698 1.316-.874 2.08-1.02zm1.519 4.356c-.52.143-1.494.3-1.804.771-.101.154-.109.356-.044.525.046.119.137.224.216.322.537.036.873-.003 1.284-.376.249-.227.477-.591.465-.943-.003-.087-.028-.176-.048-.26l-.07-.04zM42.942 17c.186-.591 1.634-3.42 2.095-3.685.24-.138 1.519-.159 1.776-.041.165.076.183.12.257.274-.132.732-1.75 3.19-2.228 3.991l-.841 1.398c.003.84.151 3.406-.142 4.014-.103.079-.176.122-.304.152-.395.092-1.18.065-1.528-.154-.269-.355-.129-3.3-.128-3.951-.43-.687-3.204-5.116-3.131-5.539.092-.132.151-.165.299-.223.468-.014 1.419-.138 1.806.097.502.305 1.881 3.045 2.068 3.668zM77.294 13.234c.491-.013 1.294-.135 1.717.118.119.808.072 1.664.074 2.479l.005 3.776c0 .986.108 2.172-.019 3.14-.025.193-.144.256-.284.366-.511.017-1.298.143-1.719-.189-.099-.378-.161-9.095-.066-9.439.045-.163.153-.182.291-.252zM19.109 26.86c.677.241 1.358.433 2.068.549 1.224.198 2.645.14 3.744.778.812.471 1.643 1.573 1.872 2.487.042.168.03.181-.056.32-.85.306-1.675.233-2.52-.044-2.036-.666-4.112-2.15-5.109-4.09zM18.726 26.865c.043-.004.084.019.126.031-.002.019-.002.039-.006.059-.105.433-1.781 2.2-2.168 2.507-1.338 1.056-3.324 1.895-5.05 1.689-.046-.01-.11-.023-.152-.042-.093-.043-.152-.077-.176-.178-.065-.27.088-.583.211-.818.395-.756 1.014-1.642 1.79-2.051.956-.503 2.368-.501 3.43-.69.681-.121 1.336-.306 1.996-.507z"/>
    </symbol>
    <symbol id="icon-menu" viewBox="0 0 32 32">
      <path d="M5.333 8h21.333v2.667H5.333V8zm0 6.667h21.333v2.667H5.333v-2.667zm0 6.666h21.333V24H5.333v-2.667z"/>
    </symbol>
    <symbol id="icon-x-social" viewBox="0 0 32 32">
      <path d="M22.901 5.657h3.68l-8.04 9.037L28 26.991h-7.406l-5.801-7.458-6.637 7.458H4.474l8.6-9.666L4 5.657h7.594l5.243 6.817 6.064-6.817zM21.61 24.824h2.039L10.486 7.709H8.298L21.61 24.824z"/>
    </symbol>
    <symbol id="icon-youtube" viewBox="0 0 32 32">
      <path d="M28.791 9.604c-.152-.563-.449-1.077-.861-1.49s-.925-.711-1.489-.864C24.353 6.677 16 6.667 16 6.667s-8.352-.009-10.441.539c-.563.16-1.075.462-1.487.878s-.711.929-.867 1.493c-.551 2.088-.556 6.419-.556 6.419s-.005 4.352.541 6.419c.307 1.143 1.207 2.045 2.351 2.353 2.109.573 10.44.583 10.44.583s8.353.009 10.441-.537c.563-.153 1.077-.45 1.49-.862s.712-.925.866-1.488c.552-2.087.556-6.416.556-6.416s.027-4.353-.543-6.441zM13.328 20.007l.007-8 6.943 4.007-6.949 3.993z"/>
    </symbol>
  </defs>
</svg>
