<svg xmlns="http://www.w3.org/2000/svg" width="32" height="32" fill="none">
  <path fill="#0D0B0A" d="M15.4506 6.4195c.2964.1472.6297.57.8534.82 1.9195 2.1441 2.9263 4.8751 2.7482 7.7499-.1724 2.7819-1.5462 5.2521-3.6083 7.0777-.3905-.2669-.7478-.6468-1.0602-1-1.7517-1.9812-2.7119-4.7648-2.5446-7.4056.1724-2.7227 1.5642-5.447 3.6115-7.242Z"/>
  <path fill="#0D0B0A" d="M23.6207 10.3131c.0057.0097.0122.0189.0171.029.1092.2224.1408.5754.1685.8223.1443 1.284.0249 2.5713-.4267 3.7871-1.1282 3.0372-3.736 5.273-6.6193 6.5984-.034-.0004-.0112.0023-.063-.0279.1761-.2882.4219-.5458.6252-.8167.3109-.4228.5927-.8662.8432-1.3269.8833-1.6253 1.3057-3.4127 1.3043-5.256-.0003-.5235-.0123-1.0464-.1638-1.5517.2704-.3001.6017-.553.9233-.7964 1.0365-.7844 2.0809-1.3303 3.3912-1.4612ZM7.2455 10.3259c.1556.0059.3126.0261.4665.0496 1.1844.1802 2.2207.8109 3.1459 1.5408.2583.2038.5408.4162.7353.6839-.492 2.5275.1605 5.1776 1.4674 7.3635.2087.3474.4342.6844.6756 1.0101.1153.1552.2525.296.3559.4589l-.0366.0475c-2.1548-.9215-4.1734-2.5522-5.472-4.5013-1.3624-2.0449-1.8129-4.2477-1.338-6.653Z"/>
  <path fill="#0D0B0A" d="M25.7283 15.9661c.3436-.041 1.1136-.0843 1.4016.0991.0145.0433.0188.0476.0203.1002.0058.2015-.1259.5033-.1942.6913a8.0402 8.0402 0 0 1-2.2722 3.3651c-2.0219 1.7877-4.6427 2.4291-7.2895 2.2589-.5-.0522-1.0153-.087-1.4959-.2402 2.2176-.6821 4.3271-2.0756 5.8555-3.8158.3757-.4279.6511-.9246 1.0167-1.3548.6938-.8167 1.9518-1.0326 2.9577-1.1038ZM4.543 16.0338c1.0335-.1218 2.4357.0484 3.287.6918.506.3826.811 1.0929 1.2293 1.5765a13.076 13.076 0 0 0 4.7882 3.4907c.3923.1679.7961.3432 1.2109.4453l-.8291.1385c-2.4145.3475-4.9165-.0839-6.9824-1.4271-1.4068-.915-2.3974-2.1696-2.9797-3.7345-.0855-.2295-.2135-.4786-.2572-.7177-.0255-.1397-.003-.2317.0785-.3501.1299-.0956.2987-.0944.4546-.1134ZM15.5762 22.4018c.42.1493.8427.2689 1.2833.3404.7591.1231 1.6411.0871 2.3231.4825.5036.2921 1.0194.9761 1.1617 1.5432.0261.1041.0186.1126-.0348.1989-.5271.1899-1.039.1447-1.5635-.0271-1.2635-.4132-2.5514-1.334-3.1698-2.5379ZM15.3384 22.4049c.0266-.0023.0522.0116.078.0189-.0013.012-.0011.0244-.004.0364-.0648.2689-1.105 1.3653-1.3452 1.5552-.8299.6554-2.0622 1.1757-3.133 1.0477-.0286-.0062-.0684-.0139-.0944-.0259-.0577-.0267-.0942-.048-.1094-.1103-.0406-.1675.0546-.3617.1308-.5072.2452-.4689.6293-1.019 1.1105-1.2724.5931-.3118 1.4689-.3107 2.1281-.4279.4223-.075.8292-.1896 1.2386-.3145Z"/>
</svg>
